<svg width="512" height="512" viewBox="0 0 512 512" xmlns="http://www.w3.org/2000/svg">
<path d="M256 0C114.6 0 0 114.6 0 256C0 397.4 114.6 512 256 512C397.4 512 512 397.4 512 256C512 114.6 397.4 0 256 0ZM80.72 256H79.63C70.552 256 63.23 247.989 64.07 238.66C72.36 146 146.5 72.06 239.3 64.06C248.3 63.28 256 70.75 256 80.09C256 88.44 249.785 95.37 241.73 96.08C164.7 102.9 103.1 164.3 96.15 241.4C95.4 249.6 88.77 256 80.72 256ZM256 351.1C202.98 351.1 160 308.1 160 256C160 203.9 202.98 160 256 160C309.02 160 352 203 352 256C352 309 309 351.1 256 351.1ZM256 224C238.3 224 224 238.2 224 256C224 273.8 238.3 288 256 288C273.7 288 288 273.75 288 256C288 238.25 273.7 224 256 224Z" />
</svg>
