<svg width="448" height="448" viewBox="0 0 448 448" fill="none" xmlns="http://www.w3.org/2000/svg">
<path d="M345.315 17.0929C345.315 17.0935 345.316 17.0941 345.317 17.0947L429.211 100.989C432.897 104.675 436.267 109.981 438.711 115.747C441.163 121.53 442.5 127.338 442.5 131.9V384C442.5 416.312 416.312 442.5 384 442.5H64C31.6876 442.5 5.5 416.312 5.5 384V64C5.5 31.6876 31.6876 5.5 64 5.5H316.1C320.678 5.5 326.508 6.84877 332.127 9.11931C337.769 11.3996 342.568 14.3545 345.315 17.0929ZM154.5 320C154.5 358.378 185.622 389.5 224 389.5C262.335 389.5 293.5 358.38 293.5 320C293.5 281.622 262.378 250.5 224 250.5C185.622 250.5 154.5 281.622 154.5 320ZM304 197.5C315.838 197.5 325.5 187.838 325.5 176V80C325.5 68.1624 315.838 58.5 304 58.5H80C68.1135 58.5 58.5 68.1714 58.5 80V176C58.5 187.829 68.1135 197.5 80 197.5H304Z" />
</svg>
